<?xml version="1.0" encoding="UTF-8" standalone="no"?>
<!-- Created with Inkscape (http://www.inkscape.org/) -->

<svg
   xmlns:dc="http://purl.org/dc/elements/1.1/"
   xmlns:cc="http://creativecommons.org/ns#"
   xmlns:rdf="http://www.w3.org/1999/02/22-rdf-syntax-ns#"
   xmlns:svg="http://www.w3.org/2000/svg"
   xmlns="http://www.w3.org/2000/svg"
   xmlns:sodipodi="http://sodipodi.sourceforge.net/DTD/sodipodi-0.dtd"
   xmlns:inkscape="http://www.inkscape.org/namespaces/inkscape"
   width="22"
   height="22"
   id="svg3613"
   version="1.1"
   inkscape:version="0.91 r"
   sodipodi:docname="applications.svgz">
  <defs
     id="defs3615">
    <style
       type="text/css"
       id="current-color-scheme">
      .ColorScheme-Text {
        color:#ebdbb2;
      }
      .ColorScheme-Background{
        color:#ebdbb2;
      }
      .ColorScheme-ViewText {
        color:#ebdbb2;
      }
      .ColorScheme-ViewBackground{
        color:#ebdbb2;
      }
      .ColorScheme-ViewHover {
        color:#ebdbb2;
      }
      .ColorScheme-ViewFocus{
        color:#ebdbb2;
      }
      .ColorScheme-ButtonText {
        color:#ebdbb2;
      }
      .ColorScheme-ButtonBackground{
        color:#ebdbb2;
      }
      .ColorScheme-ButtonHover {
        color:#ebdbb2;
      }
      .ColorScheme-ButtonFocus{
        color:#ebdbb2;
      }
</style>
  </defs>
  <sodipodi:namedview
     id="base"
     pagecolor="#ebdbb2"
     bordercolor="#ebdbb2"
     borderopacity="1.0"
     inkscape:pageopacity="0"
     inkscape:pageshadow="2"
     inkscape:zoom="4.59"
     inkscape:cx="-13.338116"
     inkscape:cy="4.6411691"
     inkscape:document-units="px"
     inkscape:current-layer="svg3613"
     showgrid="true"
     inkscape:window-width="1600"
     inkscape:window-height="842"
     inkscape:window-x="-4"
     inkscape:window-y="32"
     inkscape:window-maximized="1"
     inkscape:showpageshadow="false"
     borderlayer="true"
     inkscape:snap-bbox="true"
     inkscape:snap-bbox-midpoints="true">
    <inkscape:grid
       type="xygrid"
       id="grid4090"
       empspacing="4"
       visible="true"
       enabled="true"
       snapvisiblegridlinesonly="true" />
  </sodipodi:namedview>
  <metadata
     id="metadata3618">
    <rdf:RDF>
      <cc:Work
         rdf:about="">
        <dc:format>image/svg+xml</dc:format>
        <dc:type
           rdf:resource="http://purl.org/dc/dcmitype/StillImage" />
        <dc:title></dc:title>
      </cc:Work>
    </rdf:RDF>
  </metadata>
  <g
     id="22-22-applications-other"
     inkscape:label="#g4163">
    <rect
       style="opacity:0;fill:#ebdbb2;fill-opacity:1;stroke:none"
       id="rect3028"
       width="22"
       height="22"
       x="2.2758499e-16"
       y="4.520874e-08" />
    <path
       inkscape:connector-curvature="0"
       id="rect4140"
       d="M 5,3 C 3.892,3 3,3.892 3,5 l 0,4 c 0,1.108 0.892,2 2,2 l 4,0 c 1.108,0 2,-0.892 2,-2 L 11,5 C 11,3.892 10.108,3 9,3 L 5,3 Z m 9,0 c -1.108,0 -2,0.892 -2,2 l 0,4 c 0,1.108 0.892,2 2,2 l 4,0 c 1.108,0 2,-0.892 2,-2 L 20,5 C 20,3.892 19.108,3 18,3 l -4,0 z m -9,9 c -1.108,0 -2,0.892 -2,2 l 0,4 c 0,1.108 0.892,2 2,2 l 4,0 c 1.108,0 2,-0.892 2,-2 l 0,-4 c 0,-1.108 -0.892,-2 -2,-2 l -4,0 z m 9,0 c -1.108,0 -2,0.892 -2,2 l 0,4 c 0,1.108 0.892,2 2,2 l 4,0 c 1.108,0 2,-0.892 2,-2 l 0,-4 c 0,-1.108 -0.892,-2 -2,-2 l -4,0 z"
       style="opacity:0.72;fill:#ebdbb2;fill-opacity:1;fill-rule:nonzero;stroke:none;stroke-width:1;stroke-linecap:round;stroke-linejoin:round;stroke-miterlimit:4;stroke-dasharray:none;stroke-dashoffset:0;stroke-opacity:1" />
  </g>
  <g
     id="applications-other"
     inkscape:label="#g4167">
    <rect
       style="opacity:0;fill:#ebdbb2;fill-opacity:1;stroke:none"
       id="rect2994"
       width="32"
       height="32"
       x="27.999998"
       y="-9.9999828" />
    <path
       id="path4153"
       d="M 34.5 -6 C 33.115 -6 32 -4.885 32 -3.5 L 32 1.5 C 32 2.885 33.115 4 34.5 4 L 39.5 4 C 40.885 4 42 2.885 42 1.5 L 42 -3.5 C 42 -4.885 40.885 -6 39.5 -6 L 34.5 -6 z M 48.5 -6 C 47.115 -6 46 -4.885 46 -3.5 L 46 1.5 C 46 2.885 47.115 4 48.5 4 L 53.5 4 C 54.885 4 56 2.885 56 1.5 L 56 -3.5 C 56 -4.885 54.885 -6 53.5 -6 L 48.5 -6 z M 34.5 8 C 33.115 8 32 9.115 32 10.5 L 32 15.5 C 32 16.885 33.115 18 34.5 18 L 39.5 18 C 40.885 18 42 16.885 42 15.5 L 42 10.5 C 42 9.115 40.885 8 39.5 8 L 34.5 8 z M 48.5 8 C 47.115 8 46 9.115 46 10.5 L 46 15.5 C 46 16.885 47.115 18 48.5 18 L 53.5 18 C 54.885 18 56 16.885 56 15.5 L 56 10.5 C 56 9.115 54.885 8 53.5 8 L 48.5 8 z "
       style="opacity:0.72;fill:#ebdbb2;fill-opacity:1;fill-rule:nonzero;stroke:none;stroke-width:1;stroke-linecap:round;stroke-linejoin:round;stroke-miterlimit:4;stroke-dasharray:none;stroke-dashoffset:0;stroke-opacity:1" />
  </g>
</svg>
