<?xml version="1.0" encoding="UTF-8" standalone="no"?>
<!-- Created with Inkscape (http://www.inkscape.org/) -->

<svg
   xmlns:osb="http://www.openswatchbook.org/uri/2009/osb"
   xmlns:dc="http://purl.org/dc/elements/1.1/"
   xmlns:cc="http://creativecommons.org/ns#"
   xmlns:rdf="http://www.w3.org/1999/02/22-rdf-syntax-ns#"
   xmlns:svg="http://www.w3.org/2000/svg"
   xmlns="http://www.w3.org/2000/svg"
   xmlns:sodipodi="http://sodipodi.sourceforge.net/DTD/sodipodi-0.dtd"
   xmlns:inkscape="http://www.inkscape.org/namespaces/inkscape"
   sodipodi:docname="audio.svgz"
   inkscape:export-filename="/home/sam/source-symbolic.png"
   inkscape:export-xdpi="270"
   inkscape:export-ydpi="270"
   height="22"
   id="svg7384"
   style="enable-background:new"
   version="1.1"
   inkscape:version="0.91 r13725"
   width="22">
  <sodipodi:namedview
     inkscape:bbox-nodes="true"
     inkscape:bbox-paths="true"
     bordercolor="#ebdbb2"
     borderlayer="false"
     borderopacity="1"
     inkscape:current-layer="layer9"
     inkscape:cx="55.348968"
     inkscape:cy="11.018012"
     gridtolerance="10"
     inkscape:guide-bbox="true"
     guidetolerance="10"
     id="namedview88"
     inkscape:object-nodes="true"
     inkscape:object-paths="true"
     objecttolerance="10"
     pagecolor="#ebdbb2"
     inkscape:pageopacity="1"
     inkscape:pageshadow="2"
     showborder="true"
     showgrid="false"
     showguides="true"
     inkscape:showpageshadow="false"
     inkscape:snap-bbox="true"
     inkscape:snap-bbox-edge-midpoints="false"
     inkscape:snap-bbox-midpoints="false"
     inkscape:snap-center="false"
     inkscape:snap-global="true"
     inkscape:snap-grids="true"
     inkscape:snap-intersection-paths="true"
     inkscape:snap-midpoints="true"
     inkscape:snap-nodes="true"
     inkscape:snap-object-midpoints="true"
     inkscape:snap-others="true"
     inkscape:snap-page="false"
     inkscape:snap-smooth-nodes="true"
     inkscape:snap-to-guides="true"
     inkscape:window-height="845"
     inkscape:window-maximized="1"
     inkscape:window-width="1543"
     inkscape:window-x="57"
     inkscape:window-y="31"
     inkscape:zoom="10.66">
    <inkscape:grid
       color="#ebdbb2"
       dotted="false"
       empcolor="#ebdbb2"
       empopacity="0.4627451"
       empspacing="4"
       enabled="true"
       id="grid4866"
       opacity="0.16470588"
       originx="-84.000197px"
       originy="-630px"
       snapvisiblegridlinesonly="true"
       spacingx="0.25px"
       spacingy="0.25px"
       type="xygrid"
       visible="true" />
  </sodipodi:namedview>
  <metadata
     id="metadata90">
    <rdf:RDF>
      <cc:Work
         rdf:about="">
        <dc:format>image/svg+xml</dc:format>
        <dc:type
           rdf:resource="http://purl.org/dc/dcmitype/StillImage" />
        <dc:title>Paper Symbolic Icon Theme</dc:title>
      </cc:Work>
    </rdf:RDF>
  </metadata>
  <title
     id="title8473">Paper Symbolic Icon Theme</title>
  <defs
     id="defs7386">
    <linearGradient
       id="linearGradient5606"
       osb:paint="solid">
      <stop
         id="stop5608"
         offset="0"
         style="stop-color:#ebdbb2;stop-opacity:1;" />
    </linearGradient>
    <filter
       inkscape:collect="always"
       id="filter7554"
       style="color-interpolation-filters:sRGB">
      <feBlend
         inkscape:collect="always"
         id="feBlend7556"
         in2="BackgroundImage"
         mode="darken" />
    </filter>
  </defs>
  <g
     inkscape:groupmode="layer"
     id="layer9"
     inkscape:label="status"
     style="display:inline"
     transform="translate(-325.0004,419)">
    <g
       id="audio-volume-muted"
       inkscape:label="#g4170">
      <path
         inkscape:connector-curvature="0"
         id="rect4182"
         d="m 325.0004,-419 22,0 c 0,0 0,0 0,0 l 0,22 c 0,0 0,0 0,0 l -22,0 c 0,0 0,0 0,0 l 0,-22 c 0,0 0,0 0,0 z"
         style="opacity:0;fill:#ebdbb2;fill-opacity:1;fill-rule:nonzero;stroke:none;stroke-width:1;stroke-linecap:round;stroke-linejoin:round;stroke-miterlimit:4;stroke-dasharray:none;stroke-dashoffset:0;stroke-opacity:1" />
      <path
         sodipodi:nodetypes="cccccccccsccsccczc"
         inkscape:connector-curvature="0"
         style="opacity:0.3;fill:#ebdbb2;fill-opacity:1;stroke:none"
         d="m 335.0004,-416 -5,5 -3,0 0,6 3,0 5,5 z m 2,0 0,2 c 2.86838,0.84571 5,3.06286 5,6 0,2.93714 -2.13163,5.15429 -5,6 l 0,2 c 3.89455,-0.89143 7,-4.11429 7,-8 0,-3.88571 -3.10545,-7.10857 -7,-8 z m 0,4 0,8 c 0,0 3.0002,-1 3,-4 -2e-4,-3 -3,-4 -3,-4 z"
         id="path5105" />
    </g>
    <g
       id="audio-volume-low"
       transform="translate(25,0)"
       inkscape:label="#g4174">
      <path
         style="opacity:0;fill:#ebdbb2;fill-opacity:1;fill-rule:nonzero;stroke:none;stroke-width:1;stroke-linecap:round;stroke-linejoin:round;stroke-miterlimit:4;stroke-dasharray:none;stroke-dashoffset:0;stroke-opacity:1"
         d="m 325.0004,-419 22,0 c 0,0 0,0 0,0 l 0,22 c 0,0 0,0 0,0 l -22,0 c 0,0 0,0 0,0 l 0,-22 c 0,0 0,0 0,0 z"
         id="path4176"
         inkscape:connector-curvature="0" />
      <path
         style="opacity:0.72;fill:#ebdbb2;fill-opacity:1;stroke:none"
         d="m 335.0004,-416 -5,5 -3,0 0,6 3,0 5,5 z"
         id="path4196" />
      <path
         style="opacity:0.3;fill:#ebdbb2;fill-opacity:1;stroke:none"
         d="m 337.0004,-416 0,2 c 2.86838,0.84571 5,3.06286 5,6 0,2.93714 -2.13163,5.15429 -5,6 l 0,2 c 3.89455,-0.89143 7,-4.11429 7,-8 0,-3.88571 -3.10545,-7.10857 -7,-8 z"
         id="path4194" />
      <path
         style="opacity:0.3;fill:#ebdbb2;fill-opacity:1;stroke:none"
         d="m 337.0004,-412 0,8 c 0,0 3.0002,-1 3,-4 -2e-4,-3 -3,-4 -3,-4 z"
         id="path4178" />
    </g>
    <g
       transform="translate(50,0)"
       id="audio-volume-medium"
       inkscape:label="#g4180">
      <path
         inkscape:connector-curvature="0"
         id="path4182"
         d="m 325.0004,-419 22,0 c 0,0 0,0 0,0 l 0,22 c 0,0 0,0 0,0 l -22,0 c 0,0 0,0 0,0 l 0,-22 c 0,0 0,0 0,0 z"
         style="opacity:0;fill:#ebdbb2;fill-opacity:1;fill-rule:nonzero;stroke:none;stroke-width:1;stroke-linecap:round;stroke-linejoin:round;stroke-miterlimit:4;stroke-dasharray:none;stroke-dashoffset:0;stroke-opacity:1" />
      <path
         style="opacity:0.72;fill:#ebdbb2;fill-opacity:1;stroke:none"
         d="m 335.0004,-416 -5,5 -3,0 0,6 3,0 5,5 z"
         id="path4202" />
      <path
         style="opacity:0.3;fill:#ebdbb2;fill-opacity:1;stroke:none"
         d="m 337.0004,-416 0,2 c 2.86838,0.84571 5,3.06286 5,6 0,2.93714 -2.13163,5.15429 -5,6 l 0,2 c 3.89455,-0.89143 7,-4.11429 7,-8 0,-3.88571 -3.10545,-7.10857 -7,-8 z"
         id="path4200" />
      <path
         style="opacity:0.72;fill:#ebdbb2;fill-opacity:1;stroke:none"
         d="m 337.0004,-412 0,8 c 0,0 3.0002,-1 3,-4 -2e-4,-3 -3,-4 -3,-4 z"
         id="path4184" />
    </g>
    <g
       id="audio-volume-high"
       transform="translate(75,0)"
       inkscape:label="#g4186">
      <path
         style="opacity:0;fill:#ebdbb2;fill-opacity:1;fill-rule:nonzero;stroke:none;stroke-width:1;stroke-linecap:round;stroke-linejoin:round;stroke-miterlimit:4;stroke-dasharray:none;stroke-dashoffset:0;stroke-opacity:1"
         d="m 325.0004,-419 22,0 c 0,0 0,0 0,0 l 0,22 c 0,0 0,0 0,0 l -22,0 c 0,0 0,0 0,0 l 0,-22 c 0,0 0,0 0,0 z"
         id="path4188"
         inkscape:connector-curvature="0" />
      <path
         style="opacity:0.72;fill:#ebdbb2;fill-opacity:1;stroke:none"
         d="m 335.0004,-416 -5,5 -3,0 0,6 3,0 5,5 z"
         id="path4208" />
      <path
         style="opacity:0.72;fill:#ebdbb2;fill-opacity:1;stroke:none"
         d="m 337.0004,-416 0,2 c 2.86838,0.84571 5,3.06286 5,6 0,2.93714 -2.13163,5.15429 -5,6 l 0,2 c 3.89455,-0.89143 7,-4.11429 7,-8 0,-3.88571 -3.10545,-7.10857 -7,-8 z"
         id="path4206" />
      <path
         style="opacity:0.72;fill:#ebdbb2;fill-opacity:1;stroke:none"
         d="m 337.0004,-412 0,8 c 0,0 3.0002,-1 3,-4 -2e-4,-3 -3,-4 -3,-4 z"
         id="path4190" />
    </g>
  </g>
  <g
     inkscape:groupmode="layer"
     id="layer10"
     inkscape:label="devices"
     style="display:inline;filter:url(#filter7554)"
     transform="translate(-325.0004,419)" />
  <g
     inkscape:groupmode="layer"
     id="layer1"
     inkscape:label="places"
     style="display:inline"
     transform="translate(-84.000197,-198)" />
  <g
     inkscape:groupmode="layer"
     id="layer14"
     inkscape:label="mimetypes"
     style="display:inline"
     transform="translate(-325.0004,419)" />
  <g
     inkscape:groupmode="layer"
     id="layer15"
     inkscape:label="emblems"
     style="display:inline"
     transform="translate(-325.0004,419)" />
  <g
     inkscape:groupmode="layer"
     id="g71291"
     inkscape:label="emotes"
     style="display:inline"
     transform="translate(-325.0004,419)" />
  <g
     inkscape:groupmode="layer"
     id="layer2"
     inkscape:label="categories"
     style="display:inline"
     transform="translate(-84.000197,-48)" />
  <g
     inkscape:groupmode="layer"
     id="g6058"
     inkscape:label="apps"
     style="display:inline"
     transform="translate(-84.000197,-48)" />
  <g
     inkscape:groupmode="layer"
     id="layer12"
     inkscape:label="actions"
     style="display:inline"
     transform="translate(-325.0004,419)" />
</svg>
