<?xml version="1.0" encoding="UTF-8" standalone="no"?>
<svg
   xmlns:osb="http://www.openswatchbook.org/uri/2009/osb"
   xmlns:dc="http://purl.org/dc/elements/1.1/"
   xmlns:cc="http://creativecommons.org/ns#"
   xmlns:rdf="http://www.w3.org/1999/02/22-rdf-syntax-ns#"
   xmlns:svg="http://www.w3.org/2000/svg"
   xmlns="http://www.w3.org/2000/svg"
   xmlns:sodipodi="http://sodipodi.sourceforge.net/DTD/sodipodi-0.dtd"
   xmlns:inkscape="http://www.inkscape.org/namespaces/inkscape"
   viewBox="0 0 22 22"
   id="svg"
   version="1.1"
   inkscape:version="0.91 r"
   width="100%"
   height="100%"
   sodipodi:docname="device.svgz">
  <defs
     id="defs81">
    <style
       id="current-color-scheme"
       type="text/css">
      .ColorScheme-Text {
        color:#ebdbb2;
      }
      .ColorScheme-Background{
        color:#ebdbb2;
      }
      .ColorScheme-Highlight{
        color:#ebdbb2;
      }
      .ColorScheme-ViewText {
        color:#ebdbb2;
      }
      .ColorScheme-ViewBackground{
        color:#ebdbb2;
      }
      .ColorScheme-ViewHover {
        color:#ebdbb2;
      }
      .ColorScheme-ViewFocus{
        color:#ebdbb2;
      }
      .ColorScheme-ButtonText {
        color:#ebdbb2;
      }
      .ColorScheme-ButtonBackground{
        color:#ebdbb2;
      }
      .ColorScheme-ButtonHover {
        color:#ebdbb2;
      }
      .ColorScheme-ButtonFocus{
        color:#ebdbb2;
      }
</style>
    <linearGradient
       osb:paint="solid"
       id="linearGradient5606">
      <stop
         style="stop-color:#ebdbb2;stop-opacity:1;"
         offset="0"
         id="stop5608" />
    </linearGradient>
  </defs>
  <metadata
     id="metadata34">
    <rdf:RDF>
      <cc:Work
         rdf:about="">
        <dc:format>image/svg+xml</dc:format>
        <dc:type
           rdf:resource="http://purl.org/dc/dcmitype/StillImage" />
        <dc:title></dc:title>
      </cc:Work>
    </rdf:RDF>
  </metadata>
  <sodipodi:namedview
     pagecolor="#ebdbb2"
     bordercolor="#ebdbb2"
     borderopacity="1"
     objecttolerance="10"
     gridtolerance="10"
     guidetolerance="10"
     inkscape:pageopacity="0.08627451"
     inkscape:pageshadow="2"
     inkscape:window-width="1600"
     inkscape:window-height="842"
     id="namedview32"
     showgrid="true"
     inkscape:zoom="3.4895434"
     inkscape:cx="-50.453084"
     inkscape:cy="11.874426"
     inkscape:window-x="-4"
     inkscape:window-y="32"
     inkscape:window-maximized="1"
     inkscape:current-layer="svg"
     borderlayer="true"
     showguides="true"
     inkscape:guide-bbox="true"
     inkscape:snap-bbox="true"
     inkscape:snap-nodes="true"
     inkscape:bbox-nodes="true">
    <inkscape:grid
       type="xygrid"
       id="grid3046"
       empspacing="4"
       visible="true"
       enabled="true"
       snapvisiblegridlinesonly="true"
       empcolor="#ebdbb2"
       empopacity="0.08627451"
       color="#ebdbb2"
       opacity="0.02745098" />
  </sodipodi:namedview>
  <rect
     style="fill:#ebdbb2;fill-opacity:0;stroke:none"
     id="rect3011-4"
     width="22"
     height="22"
     x="0"
     y="0" />
  <g
     id="g2991"
     transform="translate(25,-2)">
    <rect
       style="fill:#ebdbb2;fill-opacity:0;stroke:none"
       id="rect2993"
       width="24"
       height="24"
       x="0"
       y="0" />
    <g
       id="g2995"
       transform="translate(-508,-1036.3622)">
      <path
         sodipodi:nodetypes="cccccccccccccccccccccccccccccccccccccccccccccc"
         inkscape:connector-curvature="0"
         class="ColorScheme-Text"
         id="path2997"
         transform="translate(508,1036.3622)"
         d="m 2,2 0,20 11,0 0,-3 -4,0 0,-6 4,0 0,-2 -4,0 0,-6 4,0 0,-3 z m 20,0.78125 c 0,0 -0.47953,1.5907 -1.890625,3.09375 C 18.894025,7.0386 18.83249,7.5 15.90625,7.5 l 0,-1.5 L 10,6 l 0,4 5.90625,0 0,-1.5 c 3.07376,0 3.591795,-0.66275 4.890625,-1.90625 C 22.165585,5.28315 22.90625,3.1875 22.90625,3.1875 z M 14,12 l 0,0.5 0,1.5 -4,0 0,4 4,0 0,1.5 0,0.5 0.5,0 7,0 0.5,0 0,-0.5 0,-7 0,-0.5 -0.5,0 -7,0 z m 1,1 6,0 0,6 -6,0 z"
         style="fill:#ebdbb2;fill-opacity:1;stroke:none;opacity:0.72" />
    </g>
  </g>
  <g
     id="16-16-device-notifier"
     inkscape:label="#g4236">
    <rect
       y="26"
       x="0"
       height="16"
       width="16"
       id="rect4188"
       style="opacity:0;fill:#ebdbb2;fill-opacity:1;fill-rule:nonzero;stroke:none;stroke-width:1;stroke-linecap:round;stroke-linejoin:round;stroke-miterlimit:4;stroke-dasharray:none;stroke-dashoffset:0;stroke-opacity:1" />
    <rect
       style="fill:#ebdbb2;fill-opacity:0;stroke:none"
       id="rect3823"
       width="16"
       height="16"
       x="0"
       y="26" />
    <path
       style="display:inline;opacity:0.72;fill:#ebdbb2;fill-opacity:1;stroke:none;filter:url(#filter7554);enable-background:new"
       sodipodi:nodetypes="cscsscscccccccc"
       id="rect9463"
       d="M 4.84375,27.00693 C 4.5625,27.05381 4,27.256806 4,28.006435 l 0,8.995545 c 0,0 0,0.999505 1,0.999505 l 6,0 c 1,0 1,-0.999505 1,-0.999505 l 0,-8.995545 C 12,27.00693 11,27.00693 11,27.00693 l -6,0 c 0,0 -0.0625,-0.01559 -0.15625,0 z M 5,39.00099 5,41 l 6,0 0,-1.99901 z"
       inkscape:connector-curvature="0" />
  </g>
  <g
     id="22-22-device-notifier"
     transform="translate(28,4)"
     inkscape:label="#g4256">
    <rect
       style="opacity:0;fill:#ebdbb2;fill-opacity:1;fill-rule:nonzero;stroke:none;stroke-width:1;stroke-linecap:round;stroke-linejoin:round;stroke-miterlimit:4;stroke-dasharray:none;stroke-dashoffset:0;stroke-opacity:1"
       id="rect4243"
       width="22"
       height="22"
       x="-28"
       y="-4" />
    <rect
       y="-4"
       x="-28"
       height="22"
       width="22"
       id="rect4245"
       style="fill:#ebdbb2;fill-opacity:0;stroke:none" />
    <path
       inkscape:connector-curvature="0"
       id="path4254"
       d="M -20.945312,-1.9911827 C -21.296875,-1.9315254 -22,-1.6732017 -22,-0.71925708 l 0,11.44733208 c 0,0 0,1.271925 1.25,1.271925 l 7.5,0 C -12,12 -12,10.728075 -12,10.728075 l 0,-11.44733208 c 0,-1.27192562 -1.25,-1.27192562 -1.25,-1.27192562 l -7.5,0 c 0,0 -0.07813,-0.019839 -0.195312,0 z"
       style="display:inline;opacity:0.72;fill:#ebdbb2;fill-opacity:1;stroke:none;filter:url(#filter7554);enable-background:new" />
    <path
       inkscape:connector-curvature="0"
       id="path4247"
       d="m -21,13 0,3 8,0 0,-3 z"
       style="display:inline;opacity:0.72;fill:#ebdbb2;fill-opacity:1;stroke:none;filter:url(#filter7554);enable-background:new" />
  </g>
  <g
     id="device-notifier"
     transform="translate(40,4)"
     inkscape:label="#g4302">
    <rect
       y="-38"
       x="-40"
       height="32"
       width="32"
       id="rect4264"
       style="opacity:0;fill:#ebdbb2;fill-opacity:1;fill-rule:nonzero;stroke:none;stroke-width:1;stroke-linecap:round;stroke-linejoin:round;stroke-miterlimit:4;stroke-dasharray:none;stroke-dashoffset:0;stroke-opacity:1" />
    <rect
       style="fill:#ebdbb2;fill-opacity:0;stroke:none"
       id="rect4266"
       width="32"
       height="32"
       x="-40"
       y="-38" />
    <path
       style="display:inline;opacity:0.72;fill:#ebdbb2;fill-opacity:1;stroke:none;filter:url(#filter7554);enable-background:new"
       d="M -29.523437,-34.987402 C -30.015625,-34.902182 -31,-34.533144 -31,-33.170366 l 0,16.35333 c 0,0 0,1.817036 1.75,1.817036 l 10.5,0 c 1.75,0 1.75,-1.817036 1.75,-1.817036 l 0,-16.35333 c 0,-1.817036 -1.75,-1.817036 -1.75,-1.817036 l -10.5,0 c 0,0 -0.109382,-0.02834 -0.273437,0 z"
       id="path4268"
       inkscape:connector-curvature="0" />
    <path
       style="display:inline;opacity:0.72;fill:#ebdbb2;fill-opacity:1;stroke:none;filter:url(#filter7554);enable-background:new"
       d="m -29,-13 0,4 10,0 0,-4 z"
       id="path4270"
       inkscape:connector-curvature="0" />
  </g>
</svg>
