<?xml version="1.0" encoding="UTF-8" standalone="no"?>
<svg
   xmlns:dc="http://purl.org/dc/elements/1.1/"
   xmlns:cc="http://creativecommons.org/ns#"
   xmlns:rdf="http://www.w3.org/1999/02/22-rdf-syntax-ns#"
   xmlns:svg="http://www.w3.org/2000/svg"
   xmlns="http://www.w3.org/2000/svg"
   xmlns:sodipodi="http://sodipodi.sourceforge.net/DTD/sodipodi-0.dtd"
   xmlns:inkscape="http://www.inkscape.org/namespaces/inkscape"
   viewBox="0 0 22 22"
   id="svg"
   version="1.1"
   inkscape:version="0.91 r"
   width="100%"
   height="100%"
   sodipodi:docname="klipper.svgz">
  <defs
     id="defs81">
    <style
       id="current-color-scheme"
       type="text/css">
      .ColorScheme-Text {
        color:#ebdbb2;
      }
      .ColorScheme-Background{
        color:#ebdbb2;
      }
      .ColorScheme-Highlight{
        color:#ebdbb2;
      }
      .ColorScheme-ViewText {
        color:#ebdbb2;
      }
      .ColorScheme-ViewBackground{
        color:#ebdbb2;
      }
      .ColorScheme-ViewHover {
        color:#ebdbb2;
      }
      .ColorScheme-ViewFocus{
        color:#ebdbb2;
      }
      .ColorScheme-ButtonText {
        color:#ebdbb2;
      }
      .ColorScheme-ButtonBackground{
        color:#ebdbb2;
      }
      .ColorScheme-ButtonHover {
        color:#ebdbb2;
      }
      .ColorScheme-ButtonFocus{
        color:#ebdbb2;
      }
</style>
  </defs>
  <metadata
     id="metadata34">
    <rdf:RDF>
      <cc:Work
         rdf:about="">
        <dc:format>image/svg+xml</dc:format>
        <dc:type
           rdf:resource="http://purl.org/dc/dcmitype/StillImage" />
        <dc:title />
      </cc:Work>
    </rdf:RDF>
  </metadata>
  <sodipodi:namedview
     pagecolor="#ebdbb2"
     bordercolor="#ebdbb2"
     borderopacity="1"
     objecttolerance="10"
     gridtolerance="10"
     guidetolerance="10"
     inkscape:pageopacity="0.10196078"
     inkscape:pageshadow="2"
     inkscape:window-width="1600"
     inkscape:window-height="842"
     id="namedview32"
     showgrid="true"
     inkscape:zoom="4.69"
     inkscape:cx="-71.404101"
     inkscape:cy="22.187931"
     inkscape:window-x="-4"
     inkscape:window-y="32"
     inkscape:window-maximized="1"
     inkscape:current-layer="svg"
     borderlayer="true"
     showguides="true"
     inkscape:guide-bbox="true"
     inkscape:snap-bbox="true">
    <inkscape:grid
       type="xygrid"
       id="grid3046"
       empspacing="4"
       visible="true"
       enabled="true"
       snapvisiblegridlinesonly="true" />
  </sodipodi:namedview>
  <g
     id="22-22-klipper"
     inkscape:label="#g4210">
    <rect
       style="fill:#ebdbb2;fill-opacity:0.01000001;stroke:none"
       id="rect3009"
       width="22"
       height="22"
       x="0"
       y="0" />
    <g
       transform="matrix(0.04136355,0,0,0.04284008,3.275727,3.0000012)"
       id="g4141"
       style="fill:#ebdbb2;fill-opacity:1">
      <path
         inkscape:connector-curvature="0"
         d="M 355.488,84.873 C 353.087,62.105 341.989,41.656 324.239,27.294 L 314.026,19.028 C 298.863,6.757 279.765,0 260.246,0 234.215,0 209.929,11.563 193.614,31.726 L 36.583,225.781 c -14.386,17.773 -20.989,40.088 -18.591,62.831 2.398,22.741 13.51,43.188 31.288,57.576 l 10.213,8.266 c 15.161,12.271 34.258,19.028 53.772,19.028 3.013,0 6.061,-0.161 9.059,-0.479 22.604,-2.383 42.957,-13.367 57.251,-30.859 0.048,-0.056 0.076,-0.089 105.94,-130.895 18.854,-23.303 15.236,-57.602 -8.063,-76.458 l -5.353,-4.329 c -9.628,-7.792 -21.757,-12.083 -34.149,-12.083 -16.527,0 -31.947,7.343 -42.307,20.145 L 89.902,269.192 c -6.909,8.54 -5.584,21.11 2.956,28.021 3.534,2.859 7.981,4.434 12.521,4.434 6.048,0 11.697,-2.691 15.5,-7.389 L 226.618,163.59 c 2.766,-3.417 6.886,-5.377 11.302,-5.377 3.356,0 6.507,1.115 9.113,3.224 l 5.354,4.334 c 3.008,2.434 4.888,5.9 5.295,9.762 0.406,3.862 -0.709,7.645 -3.144,10.651 L 148.92,316.704 c -8.721,10.77 -21.703,16.945 -35.618,16.946 -10.432,0 -20.64,-3.611 -28.744,-10.171 L 74.345,315.215 C 64.841,307.522 58.9,296.59 57.619,284.434 c -1.282,-12.157 2.247,-24.088 9.938,-33.59 L 224.589,56.791 c 8.721,-10.776 21.707,-16.957 35.628,-16.957 10.433,0 20.642,3.611 28.744,10.169 l 10.212,8.264 c 19.619,15.877 22.664,44.754 6.789,64.372 -3.348,4.138 -4.884,9.33 -4.326,14.623 0.559,5.292 3.145,10.051 7.28,13.397 3.535,2.86 7.982,4.436 12.522,4.436 l 0,0 c 6.048,0 11.696,-2.693 15.498,-7.39 14.365,-17.75 20.954,-40.065 18.552,-62.832 z"
         id="path4143"
         style="fill:#ebdbb2;fill-opacity:1;opacity:0.72" />
    </g>
    <g
       transform="matrix(0.04136355,0,0,0.04284008,3.275727,3.0000012)"
       id="g4145"
       style="fill:#ebdbb2;fill-opacity:1" />
    <g
       transform="matrix(0.04136355,0,0,0.04284008,3.275727,3.0000012)"
       id="g4147"
       style="fill:#ebdbb2;fill-opacity:1" />
    <g
       transform="matrix(0.04136355,0,0,0.04284008,3.275727,3.0000012)"
       id="g4149"
       style="fill:#ebdbb2;fill-opacity:1" />
    <g
       transform="matrix(0.04136355,0,0,0.04284008,3.275727,3.0000012)"
       id="g4151"
       style="fill:#ebdbb2;fill-opacity:1" />
    <g
       transform="matrix(0.04136355,0,0,0.04284008,3.275727,3.0000012)"
       id="g4153"
       style="fill:#ebdbb2;fill-opacity:1" />
    <g
       transform="matrix(0.04136355,0,0,0.04284008,3.275727,3.0000012)"
       id="g4155"
       style="fill:#ebdbb2;fill-opacity:1" />
    <g
       transform="matrix(0.04136355,0,0,0.04284008,3.275727,3.0000012)"
       id="g4157"
       style="fill:#ebdbb2;fill-opacity:1" />
    <g
       transform="matrix(0.04136355,0,0,0.04284008,3.275727,3.0000012)"
       id="g4159"
       style="fill:#ebdbb2;fill-opacity:1" />
    <g
       transform="matrix(0.04136355,0,0,0.04284008,3.275727,3.0000012)"
       id="g4161"
       style="fill:#ebdbb2;fill-opacity:1" />
    <g
       transform="matrix(0.04136355,0,0,0.04284008,3.275727,3.0000012)"
       id="g4163"
       style="fill:#ebdbb2;fill-opacity:1" />
    <g
       transform="matrix(0.04136355,0,0,0.04284008,3.275727,3.0000012)"
       id="g4165"
       style="fill:#ebdbb2;fill-opacity:1" />
    <g
       transform="matrix(0.04136355,0,0,0.04284008,3.275727,3.0000012)"
       id="g4167"
       style="fill:#ebdbb2;fill-opacity:1" />
    <g
       transform="matrix(0.04136355,0,0,0.04284008,3.275727,3.0000012)"
       id="g4169"
       style="fill:#ebdbb2;fill-opacity:1" />
    <g
       transform="matrix(0.04136355,0,0,0.04284008,3.275727,3.0000012)"
       id="g4171"
       style="fill:#ebdbb2;fill-opacity:1" />
    <g
       transform="matrix(0.04136355,0,0,0.04284008,3.275727,3.0000012)"
       id="g4173"
       style="fill:#ebdbb2;fill-opacity:1" />
  </g>
  <g
     id="klipper"
     inkscape:label="#g4266">
    <rect
       y="-34"
       x="0"
       height="30.999985"
       width="32"
       id="rect2988"
       style="fill:#ebdbb2;fill-opacity:0.01000001;stroke:none" />
    <g
       transform="matrix(0.06204533,0,0,0.06426012,4.9135903,-29.999998)"
       style="fill:#ebdbb2;fill-opacity:1"
       id="g4226">
      <path
         style="fill:#ebdbb2;fill-opacity:1;opacity:0.72"
         id="path4228"
         d="M 355.488,84.873 C 353.087,62.105 341.989,41.656 324.239,27.294 L 314.026,19.028 C 298.863,6.757 279.765,0 260.246,0 234.215,0 209.929,11.563 193.614,31.726 L 36.583,225.781 c -14.386,17.773 -20.989,40.088 -18.591,62.831 2.398,22.741 13.51,43.188 31.288,57.576 l 10.213,8.266 c 15.161,12.271 34.258,19.028 53.772,19.028 3.013,0 6.061,-0.161 9.059,-0.479 22.604,-2.383 42.957,-13.367 57.251,-30.859 0.048,-0.056 0.076,-0.089 105.94,-130.895 18.854,-23.303 15.236,-57.602 -8.063,-76.458 l -5.353,-4.329 c -9.628,-7.792 -21.757,-12.083 -34.149,-12.083 -16.527,0 -31.947,7.343 -42.307,20.145 L 89.902,269.192 c -6.909,8.54 -5.584,21.11 2.956,28.021 3.534,2.859 7.981,4.434 12.521,4.434 6.048,0 11.697,-2.691 15.5,-7.389 L 226.618,163.59 c 2.766,-3.417 6.886,-5.377 11.302,-5.377 3.356,0 6.507,1.115 9.113,3.224 l 5.354,4.334 c 3.008,2.434 4.888,5.9 5.295,9.762 0.406,3.862 -0.709,7.645 -3.144,10.651 L 148.92,316.704 c -8.721,10.77 -21.703,16.945 -35.618,16.946 -10.432,0 -20.64,-3.611 -28.744,-10.171 L 74.345,315.215 C 64.841,307.522 58.9,296.59 57.619,284.434 c -1.282,-12.157 2.247,-24.088 9.938,-33.59 L 224.589,56.791 c 8.721,-10.776 21.707,-16.957 35.628,-16.957 10.433,0 20.642,3.611 28.744,10.169 l 10.212,8.264 c 19.619,15.877 22.664,44.754 6.789,64.372 -3.348,4.138 -4.884,9.33 -4.326,14.623 0.559,5.292 3.145,10.051 7.28,13.397 3.535,2.86 7.982,4.436 12.522,4.436 l 0,0 c 6.048,0 11.696,-2.693 15.498,-7.39 14.365,-17.75 20.954,-40.065 18.552,-62.832 z"
         inkscape:connector-curvature="0" />
    </g>
    <g
       transform="matrix(0.06204533,0,0,0.06426012,4.9135903,-29.999998)"
       style="fill:#ebdbb2;fill-opacity:1"
       id="g4230" />
    <g
       transform="matrix(0.06204533,0,0,0.06426012,4.9135903,-29.999998)"
       style="fill:#ebdbb2;fill-opacity:1"
       id="g4232" />
    <g
       transform="matrix(0.06204533,0,0,0.06426012,4.9135903,-29.999998)"
       style="fill:#ebdbb2;fill-opacity:1"
       id="g4234" />
    <g
       transform="matrix(0.06204533,0,0,0.06426012,4.9135903,-29.999998)"
       style="fill:#ebdbb2;fill-opacity:1"
       id="g4236" />
    <g
       transform="matrix(0.06204533,0,0,0.06426012,4.9135903,-29.999998)"
       style="fill:#ebdbb2;fill-opacity:1"
       id="g4238" />
    <g
       transform="matrix(0.06204533,0,0,0.06426012,4.9135903,-29.999998)"
       style="fill:#ebdbb2;fill-opacity:1"
       id="g4240" />
    <g
       transform="matrix(0.06204533,0,0,0.06426012,4.9135903,-29.999998)"
       style="fill:#ebdbb2;fill-opacity:1"
       id="g4242" />
    <g
       transform="matrix(0.06204533,0,0,0.06426012,4.9135903,-29.999998)"
       style="fill:#ebdbb2;fill-opacity:1"
       id="g4244" />
    <g
       transform="matrix(0.06204533,0,0,0.06426012,4.9135903,-29.999998)"
       style="fill:#ebdbb2;fill-opacity:1"
       id="g4246" />
    <g
       transform="matrix(0.06204533,0,0,0.06426012,4.9135903,-29.999998)"
       style="fill:#ebdbb2;fill-opacity:1"
       id="g4248" />
    <g
       transform="matrix(0.06204533,0,0,0.06426012,4.9135903,-29.999998)"
       style="fill:#ebdbb2;fill-opacity:1"
       id="g4250" />
    <g
       transform="matrix(0.06204533,0,0,0.06426012,4.9135903,-29.999998)"
       style="fill:#ebdbb2;fill-opacity:1"
       id="g4252" />
    <g
       transform="matrix(0.06204533,0,0,0.06426012,4.9135903,-29.999998)"
       style="fill:#ebdbb2;fill-opacity:1"
       id="g4254" />
    <g
       transform="matrix(0.06204533,0,0,0.06426012,4.9135903,-29.999998)"
       style="fill:#ebdbb2;fill-opacity:1"
       id="g4256" />
    <g
       transform="matrix(0.06204533,0,0,0.06426012,4.9135903,-29.999998)"
       style="fill:#ebdbb2;fill-opacity:1"
       id="g4258" />
  </g>
</svg>
