<?xml version="1.0" encoding="UTF-8" standalone="no"?>
<svg
   xmlns:dc="http://purl.org/dc/elements/1.1/"
   xmlns:cc="http://creativecommons.org/ns#"
   xmlns:rdf="http://www.w3.org/1999/02/22-rdf-syntax-ns#"
   xmlns:svg="http://www.w3.org/2000/svg"
   xmlns="http://www.w3.org/2000/svg"
   xmlns:sodipodi="http://sodipodi.sourceforge.net/DTD/sodipodi-0.dtd"
   xmlns:inkscape="http://www.inkscape.org/namespaces/inkscape"
   viewBox="0 0 22 22"
   id="svg"
   version="1.1"
   inkscape:version="0.91 r13725"
   width="100%"
   height="100%"
   sodipodi:docname="korgac.svgz">
  <defs
     id="defs81">
    <style
       id="current-color-scheme"
       type="text/css">
      .ColorScheme-Text {
        color:#ebdbb2;
      }
      .ColorScheme-Background{
        color:#ebdbb2;
      }
      .ColorScheme-Highlight{
        color:#ebdbb2;
      }
      .ColorScheme-ViewText {
        color:#ebdbb2;
      }
      .ColorScheme-ViewBackground{
        color:#ebdbb2;
      }
      .ColorScheme-ViewHover {
        color:#ebdbb2;
      }
      .ColorScheme-ViewFocus{
        color:#ebdbb2;
      }
      .ColorScheme-ButtonText {
        color:#ebdbb2;
      }
      .ColorScheme-ButtonBackground{
        color:#ebdbb2;
      }
      .ColorScheme-ButtonHover {
        color:#ebdbb2;
      }
      .ColorScheme-ButtonFocus{
        color:#ebdbb2;
      }
</style>
  </defs>
  <metadata
     id="metadata34">
    <rdf:RDF>
      <cc:Work
         rdf:about="">
        <dc:format>image/svg+xml</dc:format>
        <dc:type
           rdf:resource="http://purl.org/dc/dcmitype/StillImage" />
        <dc:title></dc:title>
      </cc:Work>
    </rdf:RDF>
  </metadata>
  <sodipodi:namedview
     pagecolor="#ebdbb2"
     bordercolor="#ebdbb2"
     borderopacity="1"
     objecttolerance="10"
     gridtolerance="10"
     guidetolerance="10"
     inkscape:pageopacity="0.10196078"
     inkscape:pageshadow="2"
     inkscape:window-width="1543"
     inkscape:window-height="845"
     id="namedview32"
     showgrid="true"
     inkscape:zoom="29.84"
     inkscape:cx="13.238879"
     inkscape:cy="10.480079"
     inkscape:window-x="57"
     inkscape:window-y="31"
     inkscape:window-maximized="1"
     inkscape:current-layer="korgac"
     borderlayer="true"
     showguides="true"
     inkscape:guide-bbox="true"
     inkscape:snap-bbox="true">
    <inkscape:grid
       type="xygrid"
       id="grid3046"
       empspacing="5"
       visible="true"
       enabled="true"
       snapvisiblegridlinesonly="true" />
  </sodipodi:namedview>
  <g
     id="korgac"
     transform="translate(-1,-1)">
    <rect
       style="fill:#ebdbb2;fill-opacity:0.01000001;stroke:none"
       id="rect3009"
       width="22"
       height="22"
       x="1"
       y="1" />
    <path
       style="color:#ebdbb2;fill:#ebdbb2;fill-opacity:1;stroke:none;opacity:0.72"
       d="M 11 3 C 9.4587051 3 8.2028355 4.1661805 8.0332031 5.6621094 C 5.6483721 6.7755664 4 9.1852041 4 12 C 4 15.877997 7.1220027 19 11 19 C 14.87799 19 18 15.877997 18 12 C 18 9.1852041 16.351627 6.7755664 13.966797 5.6621094 C 13.797164 4.1661805 12.541295 3 11 3 z M 6.875 3.0703125 C 5.2111759 3.9227004 3.8558592 5.2726121 3 6.9296875 L 3 7.0527344 L 3.921875 7.3574219 C 4.6762063 5.9139363 5.8553233 4.7395464 7.3046875 3.9882812 L 6.9980469 3.0703125 L 6.875 3.0703125 z M 15.001953 3.0703125 L 14.695312 3.9882812 C 16.144672 4.739553 17.323785 5.913943 18.078125 7.3574219 L 19 7.0527344 L 19 6.9296875 C 18.14414 5.2726187 16.788818 3.9226938 15.125 3.0703125 L 15.001953 3.0703125 z M 11 7 C 13.769992 7 16 9.241238 16 12 L 11 12 L 11 7 z "
       transform="translate(1,1)"
       id="rect4120-4-7" />
  </g>
</svg>
