<?xml version="1.0" encoding="UTF-8" standalone="no"?>
<!-- Created with Inkscape (http://www.inkscape.org/) -->

<svg
   xmlns:dc="http://purl.org/dc/elements/1.1/"
   xmlns:cc="http://creativecommons.org/ns#"
   xmlns:rdf="http://www.w3.org/1999/02/22-rdf-syntax-ns#"
   xmlns:svg="http://www.w3.org/2000/svg"
   xmlns="http://www.w3.org/2000/svg"
   xmlns:sodipodi="http://sodipodi.sourceforge.net/DTD/sodipodi-0.dtd"
   xmlns:inkscape="http://www.inkscape.org/namespaces/inkscape"
   width="22"
   height="22"
   id="svg7229"
   sodipodi:version="0.32"
   inkscape:version="0.91 r13725"
   version="1.0"
   sodipodi:docname="media.svgz"
   inkscape:output_extension="org.inkscape.output.svgz.inkscape">
  <defs
     id="defs7231">
    <style
       id="current-color-scheme"
       type="text/css">
      .ColorScheme-Text {
        color:#ebdbb2;
      }
      .ColorScheme-Background{
        color:#ebdbb2;
      }
      .ColorScheme-ViewText {
        color:#ebdbb2;
      }
      .ColorScheme-ViewBackground{
        color:#ebdbb2;
      }
      .ColorScheme-ViewHover {
        color:#ebdbb2;
      }
      .ColorScheme-ViewFocus{
        color:#ebdbb2;
      }
      .ColorScheme-ButtonText {
        color:#ebdbb2;
      }
      .ColorScheme-ButtonBackground{
        color:#ebdbb2;
      }
      .ColorScheme-ButtonHover {
        color:#ebdbb2;
      }
      .ColorScheme-ButtonFocus{
        color:#ebdbb2;
      }
</style>
  </defs>
  <sodipodi:namedview
     id="base"
     pagecolor="#ebdbb2"
     bordercolor="#ebdbb2"
     borderopacity="1.0"
     inkscape:pageopacity="0.13333333"
     inkscape:pageshadow="2"
     inkscape:zoom="3.77"
     inkscape:cx="109.08687"
     inkscape:cy="10.999978"
     inkscape:document-units="px"
     inkscape:current-layer="layer1"
     showgrid="false"
     inkscape:window-width="1543"
     inkscape:window-height="844"
     inkscape:window-x="57"
     inkscape:window-y="32"
     showguides="false"
     inkscape:guide-bbox="true"
     gridtolerance="6"
     inkscape:window-maximized="1"
     inkscape:snap-bbox="true">
    <inkscape:grid
       type="xygrid"
       id="grid7245"
       visible="true"
       enabled="true"
       empspacing="4"
       snapvisiblegridlinesonly="true" />
  </sodipodi:namedview>
  <metadata
     id="metadata7234">
    <rdf:RDF>
      <cc:Work
         rdf:about="">
        <dc:format>image/svg+xml</dc:format>
        <dc:type
           rdf:resource="http://purl.org/dc/dcmitype/StillImage" />
        <dc:title></dc:title>
      </cc:Work>
    </rdf:RDF>
  </metadata>
  <g
     inkscape:label="Camada 1"
     inkscape:groupmode="layer"
     id="layer1"
     transform="translate(-214.53572,-404.50504)">
    <g
       transform="matrix(1.4999765,0,0,1.4999765,209.03579,-1146.5136)"
       id="media-playback-pause"
       style="fill:#ebdbb2">
      <rect
         style="opacity:0.01000001;fill:#ebdbb2;fill-opacity:0.00392157;stroke:none"
         id="rect3003-0"
         width="14.666897"
         height="14.666837"
         x="3.6666775"
         y="1034.0287" />
      <path
         style="fill:#ebdbb2;fill-opacity:1;stroke:none;opacity:0.72"
         d="M 11 3 C 6.5678982 3 3 6.5678694 3 11 C 3 15.432131 6.5678982 19 11 19 C 15.432102 19 19 15.432131 19 11 C 19 6.5678694 15.432102 3 11 3 z M 8 8 L 10 8 L 10 14 L 8 14 L 8 8 z M 12 8 L 14 8 L 14 14 L 12 14 L 12 8 z "
         transform="matrix(0.66667711,0,0,0.66667711,3.6666774,1034.0286)"
         id="path4165" />
    </g>
    <g
       transform="matrix(1.4999765,0,0,1.4999765,233.03531,-1146.5136)"
       id="media-playback-start"
       style="fill:#ebdbb2">
      <rect
         style="opacity:0.01000001;fill:#ebdbb2;fill-opacity:0.00392157;stroke:none"
         id="rect3003-1"
         width="14.666897"
         height="14.666837"
         x="3.6669974"
         y="1034.0287" />
      <path
         style="fill:#ebdbb2;fill-opacity:1;stroke:none;opacity:0.72"
         d="M 35 3 C 30.567629 3 26.998047 6.5675694 26.998047 11 C 26.998047 15.432431 30.567629 19 35 19 C 39.432371 19 43 15.432431 43 11 C 43 6.5675694 39.432371 3 35 3 z M 33 8 L 37 11 L 33 14 L 33 8 z "
         transform="matrix(0.66667711,0,0,0.66667711,-12.333253,1034.0286)"
         id="path4176" />
    </g>
    <g
       transform="matrix(1.4999765,0,0,1.4999765,257.03484,-1146.5136)"
       id="media-playback-stop"
       inkscape:label="Capa 1"
       style="fill:#ebdbb2">
      <rect
         style="opacity:0.01000001;fill:#ebdbb2;fill-opacity:0.00392157;stroke:none"
         id="rect3003-3"
         width="14.666897"
         height="14.666837"
         x="3.6673107"
         y="1034.0287" />
      <path
         style="fill:#ebdbb2;fill-opacity:1;stroke:none;opacity:0.72"
         d="M 58.998047 3 C 54.565945 3 50.998047 6.5678694 50.998047 11 C 50.998047 15.432131 54.565945 19 58.998047 19 C 63.430149 19 67 15.432131 67 11 C 67 6.5678694 63.430149 3 58.998047 3 z M 55.998047 8 L 61.998047 8 L 61.998047 14 L 55.998047 14 L 55.998047 8 z "
         transform="matrix(0.66667711,0,0,0.66667711,-28.333191,1034.0286)"
         id="path4184" />
    </g>
    <g
       transform="matrix(1.4999765,0,0,1.4999765,281.03438,-1146.5136)"
       id="media-record"
       inkscape:label="Capa 1">
      <rect
         style="opacity:0.01000001;fill:#ebdbb2;fill-opacity:0.00392157;stroke:none"
         id="rect3003-03"
         width="14.666897"
         height="14.666837"
         x="3.6676176"
         y="1034.0287" />
      <path
         style="fill:#ebdbb2;fill-opacity:1;stroke:none;opacity:0.72"
         d="M 82.998047 3 C 78.565945 3 74.998047 6.5678694 74.998047 11 C 74.998047 15.432131 78.565945 19 82.998047 19 C 87.430149 19 90.998047 15.432131 90.998047 11 C 90.998047 6.5678694 87.430149 3 82.998047 3 z "
         transform="matrix(0.66667711,0,0,0.66667711,-44.333135,1034.0286)"
         id="path4192" />
      <rect
         ry="2.4000101"
         y="1038.9622"
         x="8.5999899"
         height="4.8000202"
         width="4.8000202"
         id="rect3274-0"
         style="fill:#ebdbb2;fill-opacity:1;stroke:none" />
    </g>
    <g
       transform="matrix(1.4999765,0,0,1.4999765,305.03389,-1146.5136)"
       id="media-seek-backward"
       style="fill:#ebdbb2">
      <rect
         style="opacity:0.01000001;fill:#ebdbb2;fill-opacity:0.00392157;stroke:none"
         id="rect3003-07"
         width="14.666897"
         height="14.666837"
         x="3.6679442"
         y="1034.0287" />
      <path
         style="fill:#ebdbb2;fill-opacity:1;stroke:none;opacity:0.72"
         d="M 106.99805 2.9980469 C 102.56489 2.9980469 98.996094 6.5668195 98.996094 11 C 98.996094 15.433181 102.56489 19.001953 106.99805 19.001953 C 111.4312 19.001953 115 15.433181 115 11 C 115 6.5668195 111.4312 2.9980469 106.99805 2.9980469 z M 106.99805 8 L 106.99805 11 L 110.99805 8 L 110.99805 14.001953 L 106.99805 11 L 106.99805 14.001953 L 102.99609 11 L 106.99805 8 z "
         transform="matrix(0.66667711,0,0,0.66667711,-60.333059,1034.0286)"
         id="path4197" />
    </g>
    <g
       transform="matrix(1.4999765,0,0,1.4999765,329.08783,-1146.5136)"
       id="media-seek-forward"
       inkscape:label="Capa 1"
       style="fill:#ebdbb2">
      <rect
         style="opacity:0.01000001;fill:#ebdbb2;fill-opacity:0.00392157;stroke:none"
         id="rect3003-2"
         width="14.666897"
         height="14.666837"
         x="3.6319835"
         y="1034.0287" />
      <path
         style="fill:#ebdbb2;fill-opacity:1;stroke:none;opacity:0.72"
         d="M 131.05273 3 C 126.62063 3 123.05078 6.5678694 123.05078 11 C 123.05078 15.432131 126.62063 19 131.05273 19 C 135.48484 19 139.05273 15.432131 139.05273 11 C 139.05273 6.5678694 135.48484 3 131.05273 3 z M 127.05273 8 L 131.05273 11 L 131.05273 8 L 135.05273 11 L 131.05273 14 L 131.05273 11 L 127.05273 14 L 127.05273 8 z "
         transform="matrix(0.66667711,0,0,0.66667711,-76.36927,1034.0286)"
         id="path4208" />
    </g>
    <g
       transform="matrix(1.4999765,0,0,1.4999765,353.03297,-1146.5136)"
       id="media-skip-backward"
       style="fill:#ebdbb2">
      <rect
         style="opacity:0.01000001;fill:#ebdbb2;fill-opacity:0.00392157;stroke:none"
         id="rect3003-9"
         width="14.666897"
         height="14.666837"
         x="3.6685574"
         y="1034.0287" />
      <path
         style="fill:#ebdbb2;fill-opacity:1;stroke:none;opacity:0.72"
         d="M 155 3 C 150.56807 3 147 6.5680194 147 11 C 147 15.432131 150.56807 19 155 19 C 159.43193 19 163 15.432131 163 11 C 163 6.5680194 159.43193 3 155 3 z M 152 8 L 154 8 L 154 11 L 158 8 L 158 14 L 154 11 L 154 14 L 152 14 L 152 8 z "
         transform="matrix(0.66667711,0,0,0.66667711,-92.332947,1034.0286)"
         id="path4223" />
    </g>
    <g
       transform="matrix(1.4999765,0,0,1.4999765,377.03248,-1146.5136)"
       id="media-skip-forward"
       style="fill:#ebdbb2">
      <rect
         style="opacity:0.01000001;fill:#ebdbb2;fill-opacity:0.00392157;stroke:none"
         id="rect3003-7"
         width="14.666897"
         height="14.666837"
         x="3.668884"
         y="1034.0287" />
      <path
         style="fill:#ebdbb2;fill-opacity:1;stroke:none;opacity:0.72"
         d="M 178.99609 3 C 174.56399 3 170.99609 6.5678694 170.99609 11 C 170.99609 15.432131 174.56399 19 178.99609 19 C 183.4282 19 186.99609 15.432131 186.99609 11 C 186.99609 6.5678694 183.4282 3 178.99609 3 z M 175.99609 8 L 179.99609 11 L 179.99609 8 L 181.99609 8 L 181.99609 14 L 179.99609 14 L 179.99609 11 L 175.99609 14 L 175.99609 8 z "
         transform="matrix(0.66667711,0,0,0.66667711,-108.33287,1034.0286)"
         id="path4230" />
    </g>
    <g
       id="media-eject">
      <rect
         transform="matrix(0,1,-1,0,0,0)"
         y="-428.53568"
         x="404.5051"
         height="21.99991"
         width="22"
         id="rect4241"
         style="opacity:0.01000001;fill:#ebdbb2;fill-opacity:0.00392157;stroke:none" />
      <path
         id="path4247"
         transform="translate(214.53572,404.50504)"
         d="M 203 2.9960938 C 198.56787 2.9960938 195 6.5639938 195 10.996094 C 195 15.428204 198.56787 18.996094 203 18.996094 C 207.43213 18.996094 211 15.428204 211 10.996094 C 211 6.5639938 207.43213 2.9960938 203 2.9960938 z M 203 8.0039062 L 206 11.003906 L 200 11.003906 L 203 8.0039062 z M 200 12 L 206 12 L 206 14 L 200 14 L 200 12 z "
         style="fill:#ebdbb2;fill-opacity:1;stroke:none;opacity:0.72" />
    </g>
  </g>
</svg>
