<?xml version="1.0" encoding="UTF-8" standalone="no"?>
<svg
   xmlns:dc="http://purl.org/dc/elements/1.1/"
   xmlns:cc="http://creativecommons.org/ns#"
   xmlns:rdf="http://www.w3.org/1999/02/22-rdf-syntax-ns#"
   xmlns:svg="http://www.w3.org/2000/svg"
   xmlns="http://www.w3.org/2000/svg"
   xmlns:sodipodi="http://sodipodi.sourceforge.net/DTD/sodipodi-0.dtd"
   xmlns:inkscape="http://www.inkscape.org/namespaces/inkscape"
   viewBox="0 0 22 22"
   id="svg"
   version="1.1"
   inkscape:version="0.91 r13725"
   width="100%"
   height="100%"
   sodipodi:docname="quassel.svgz">
  <defs
     id="defs81">
    <style
       id="current-color-scheme"
       type="text/css">
      .ColorScheme-Text {
        color:#ebdbb2;
      }
      .ColorScheme-Background{
        color:#ebdbb2;
      }
      .ColorScheme-Highlight{
        color:#ebdbb2;
      }
      .ColorScheme-ViewText {
        color:#ebdbb2;
      }
      .ColorScheme-ViewBackground{
        color:#ebdbb2;
      }
      .ColorScheme-ViewHover {
        color:#ebdbb2;
      }
      .ColorScheme-ViewFocus{
        color:#ebdbb2;
      }
      .ColorScheme-ButtonText {
        color:#ebdbb2;
      }
      .ColorScheme-ButtonBackground{
        color:#ebdbb2;
      }
      .ColorScheme-ButtonHover {
        color:#ebdbb2;
      }
      .ColorScheme-ButtonFocus{
        color:#ebdbb2;
      }
</style>
  </defs>
  <metadata
     id="metadata34">
    <rdf:RDF>
      <cc:Work
         rdf:about="">
        <dc:format>image/svg+xml</dc:format>
        <dc:type
           rdf:resource="http://purl.org/dc/dcmitype/StillImage" />
        <dc:title></dc:title>
      </cc:Work>
    </rdf:RDF>
  </metadata>
  <sodipodi:namedview
     pagecolor="#ebdbb2"
     bordercolor="#ebdbb2"
     borderopacity="1"
     objecttolerance="10"
     gridtolerance="10"
     guidetolerance="10"
     inkscape:pageopacity="0.03921569"
     inkscape:pageshadow="2"
     inkscape:window-width="1543"
     inkscape:window-height="845"
     id="namedview32"
     showgrid="true"
     inkscape:zoom="11.33"
     inkscape:cx="1.3645979"
     inkscape:cy="11.262011"
     inkscape:window-x="57"
     inkscape:window-y="31"
     inkscape:window-maximized="1"
     inkscape:current-layer="svg"
     borderlayer="true"
     showguides="false"
     inkscape:guide-bbox="true"
     inkscape:snap-bbox="true">
    <inkscape:grid
       type="xygrid"
       id="grid3046"
       empspacing="4"
       visible="true"
       enabled="true"
       snapvisiblegridlinesonly="true"
       color="#ebdbb2"
       opacity="0.03921569"
       empcolor="#ebdbb2"
       empopacity="0.07843137" />
    <sodipodi:guide
       orientation="0,1"
       position="2,19"
       id="guide3820" />
    <sodipodi:guide
       orientation="0,1"
       position="5,3"
       id="guide3822" />
    <sodipodi:guide
       orientation="1,0"
       position="11,20"
       id="guide3824" />
    <sodipodi:guide
       orientation="0,1"
       position="2,11"
       id="guide3826" />
  </sodipodi:namedview>
  <g
     id="quassel"
     inkscape:label="#g4159">
    <rect
       y="0"
       x="0"
       height="22"
       width="22"
       id="rect3881"
       style="fill:#ebdbb2;fill-opacity:0.01000001;stroke:none" />
    <path
       id="path4151"
       d="M 11 3 C 6.581722 3 3 6.581722 3 11 C 3 15.418278 6.581722 19 11 19 C 15.418278 19 19 15.418278 19 11 C 19 6.581722 15.418278 3 11 3 z M 11 5 C 14.313708 5 17 7.6862915 17 11 C 17 12.249675 16.616561 13.410311 15.962891 14.371094 C 15.978195 14.248303 16 14.126936 16 14 C 16 12.343146 14.656854 11 13 11 C 11.343146 11 10 12.343146 10 14 C 10 15.379197 10.935517 16.52824 12.203125 16.878906 C 11.814285 16.958084 11.412222 17 11 17 C 7.6862915 17 5 14.313708 5 11 C 5 7.6862915 7.6862915 5 11 5 z "
       style="fill:#ebdbb2;fill-opacity:1;stroke:none;opacity:0.72" />
  </g>
  <g
     id="quassel_inactive"
     transform="translate(-22,0)"
     inkscape:label="#g4163">
    <rect
       style="fill:#ebdbb2;fill-opacity:0.01000001;stroke:none"
       id="rect4165"
       width="22"
       height="22"
       x="0"
       y="0" />
    <path
       style="fill:#ebdbb2;fill-opacity:1;stroke:none;opacity:0.3"
       d="m 11,3 c -4.418278,0 -8,3.581722 -8,8 0,4.418278 3.581722,8 8,8 4.418278,0 8,-3.581722 8,-8 0,-4.418278 -3.581722,-8 -8,-8 z m 0,2 c 3.313708,0 6,2.6862915 6,6 0,1.249675 -0.383439,2.410311 -1.037109,3.371094 C 15.978195,14.248303 16,14.126936 16,14 c 0,-1.656854 -1.343146,-3 -3,-3 -1.656854,0 -3,1.343146 -3,3 0,1.379197 0.935517,2.52824 2.203125,2.878906 C 11.814285,16.958084 11.412222,17 11,17 7.6862915,17 5,14.313708 5,11 5,7.6862915 7.6862915,5 11,5 Z"
       id="path4167"
       inkscape:connector-curvature="0" />
  </g>
  <g
     id="quassel_message"
     transform="translate(22,0)"
     inkscape:label="#g4169">
    <rect
       style="fill:#ebdbb2;fill-opacity:0.01000001;stroke:none"
       id="rect4171"
       width="22"
       height="22"
       x="0"
       y="0" />
    <path
       style="fill:#ebdbb2;fill-opacity:1;stroke:none"
       d="m 11,3 c -4.418278,0 -8,3.581722 -8,8 0,4.418278 3.581722,8 8,8 4.418278,0 8,-3.581722 8,-8 0,-4.418278 -3.581722,-8 -8,-8 z m 0,2 c 3.313708,0 6,2.6862915 6,6 0,1.249675 -0.383439,2.410311 -1.037109,3.371094 C 15.978195,14.248303 16,14.126936 16,14 c 0,-1.656854 -1.343146,-3 -3,-3 -1.656854,0 -3,1.343146 -3,3 0,1.379197 0.935517,2.52824 2.203125,2.878906 C 11.814285,16.958084 11.412222,17 11,17 7.6862915,17 5,14.313708 5,11 5,7.6862915 7.6862915,5 11,5 Z"
       id="path4173"
       inkscape:connector-curvature="0" />
  </g>
</svg>
