<?xml version="1.0" encoding="UTF-8" standalone="no"?>
<svg
   xmlns:dc="http://purl.org/dc/elements/1.1/"
   xmlns:cc="http://creativecommons.org/ns#"
   xmlns:rdf="http://www.w3.org/1999/02/22-rdf-syntax-ns#"
   xmlns:svg="http://www.w3.org/2000/svg"
   xmlns="http://www.w3.org/2000/svg"
   xmlns:sodipodi="http://sodipodi.sourceforge.net/DTD/sodipodi-0.dtd"
   xmlns:inkscape="http://www.inkscape.org/namespaces/inkscape"
   viewBox="0 0 22 22"
   id="svg"
   version="1.1"
   inkscape:version="0.91 r"
   width="100%"
   height="100%"
   sodipodi:docname="user.svgz">
  <defs
     id="defs81">
    <style
       id="current-color-scheme"
       type="text/css">
      .ColorScheme-Text {
        color:#ebdbb2;
      }
      .ColorScheme-Background{
        color:#ebdbb2;
      }
      .ColorScheme-Highlight{
        color:#ebdbb2;
      }
      .ColorScheme-ViewText {
        color:#ebdbb2;
      }
      .ColorScheme-ViewBackground{
        color:#ebdbb2;
      }
      .ColorScheme-ViewHover {
        color:#ebdbb2;
      }
      .ColorScheme-ViewFocus{
        color:#ebdbb2;
      }
      .ColorScheme-ButtonText {
        color:#ebdbb2;
      }
      .ColorScheme-ButtonBackground{
        color:#ebdbb2;
      }
      .ColorScheme-ButtonHover {
        color:#ebdbb2;
      }
      .ColorScheme-ButtonFocus{
        color:#ebdbb2;
      }
</style>
  </defs>
  <metadata
     id="metadata34">
    <rdf:RDF>
      <cc:Work
         rdf:about="">
        <dc:format>image/svg+xml</dc:format>
        <dc:type
           rdf:resource="http://purl.org/dc/dcmitype/StillImage" />
        <dc:title />
      </cc:Work>
    </rdf:RDF>
  </metadata>
  <sodipodi:namedview
     pagecolor="#ebdbb2"
     bordercolor="#ebdbb2"
     borderopacity="1"
     objecttolerance="10"
     gridtolerance="10"
     guidetolerance="10"
     inkscape:pageopacity="0.03921569"
     inkscape:pageshadow="2"
     inkscape:window-width="1600"
     inkscape:window-height="840"
     id="namedview32"
     showgrid="true"
     inkscape:zoom="2.11"
     inkscape:cx="60.088583"
     inkscape:cy="10.533213"
     inkscape:window-x="-4"
     inkscape:window-y="34"
     inkscape:window-maximized="1"
     inkscape:current-layer="svg"
     borderlayer="true"
     showguides="true"
     inkscape:guide-bbox="true"
     inkscape:snap-bbox="true">
    <inkscape:grid
       type="xygrid"
       id="grid3046"
       empspacing="5"
       visible="true"
       enabled="true"
       snapvisiblegridlinesonly="true"
       color="#ebdbb2"
       opacity="0.03921569"
       empcolor="#ebdbb2"
       empopacity="0.12156863" />
  </sodipodi:namedview>
  <g
     id="user-busy"
     transform="translate(199,-1)">
    <rect
       style="fill:#ebdbb2;fill-opacity:0;stroke:none"
       id="rect3924"
       width="22"
       height="22"
       x="1"
       y="1" />
    <path
       inkscape:connector-curvature="0"
       style="color:#ebdbb2;fill:#ebdbb2;fill-opacity:1;opacity:0.72"
       d="m 12,4 c -1.662,0 -3,1.338 -3,3 0,1.662 1.338,3 3,3 1.662,0 3,-1.338 3,-3 0,-1.662 -1.338,-3 -3,-3 z m 0,1 c 1.108,0 2,0.892 2,2 0,1.108 -0.892,2 -2,2 -1.108,0 -2,-0.892 -2,-2 0,-1.108 0.892,-2 2,-2 z m 0,7 c -2.77,0 -5,0.891984 -5,2 l 0,5 0,1 1.2011733,0 7.5976537,0 L 17,20 l 0,-1 0,-5 c 0,-1.108016 -2.23,-2 -5,-2 z"
       id="rect4109-0-9"
       class="ColorScheme-Text"
       sodipodi:nodetypes="ssssssssssssccccccss" />
  </g>
  <g
     transform="translate(159,-1)"
     id="user-away-extended">
    <rect
       y="1"
       x="1"
       height="22"
       width="22"
       id="rect3907"
       style="fill:#ebdbb2;fill-opacity:0;stroke:none" />
    <path
       style="fill:#ebdbb2;fill-opacity:1;stroke:none"
       d="m 12,4 c -1.66199,0 -3,1.338 -3,3 0,1.662 1.33801,3 3,3 1.662,0 3,-1.338 3,-3 0,-1.662 -1.338,-3 -3,-3 z"
       id="path4159" />
    <path
       style="fill:#ebdbb2;fill-opacity:1;stroke:none"
       d="M 171 11 C 168.23001 11 166 11.89198 166 13 L 166 18 L 166 19 L 167.1875 19 L 174.8125 19 L 176 19 L 176 18 L 176 13 C 176 11.89198 173.77 11 171 11 z M 168.65625 14.34375 L 173.34375 14.34375 L 173.34375 15.65625 L 168.65625 15.65625 L 168.65625 14.34375 z "
       transform="translate(-159,1)"
       id="path4157" />
  </g>
  <g
     id="user-away"
     transform="translate(119,-1)">
    <rect
       style="fill:#ebdbb2;fill-opacity:0;stroke:none"
       id="rect3873"
       width="22"
       height="22"
       x="1"
       y="1" />
    <path
       style="fill:#ebdbb2;fill-opacity:1;stroke:none"
       d="m 12,4 c -1.662,0 -3,1.338 -3,3 0,1.662 1.338,3 3,3 1.662,0 3,-1.338 3,-3 0,-1.662 -1.338,-3 -3,-3 z m 0,8 c -2.77,0 -5,0.89198 -5,2 l 0,5 0,1 1.2011733,0 7.5976597,0 L 17,20 l 0,-1 0,-5 c 0,-1.10802 -2.23,-2 -5,-2 z"
       id="rect4109-4-9"
       inkscape:connector-curvature="0"
       sodipodi:nodetypes="sssssssccccccss" />
  </g>
  <g
     id="user-offline"
     transform="translate(79,-1)">
    <rect
       style="fill:#ebdbb2;fill-opacity:0;stroke:none"
       id="rect3009"
       width="22"
       height="22"
       x="1"
       y="1" />
    <path
       style="fill:#ebdbb2;fill-opacity:1;stroke:none"
       d="m 12,4 c -1.662,0 -3,1.338 -3,3 0,1.662 1.338,3 3,3 1.662,0 3,-1.338 3,-3 0,-1.662 -1.338,-3 -3,-3 z m 0,8 c -2.77,0 -5,0.89198 -5,2 l 0,5 0,1 1.20117,0 7.59766,0 1.20117,0 0,-1 0,-5 c 0,-1.10802 -2.23,-2 -5,-2 z"
       id="rect4109-00-0"
       inkscape:connector-curvature="0"
       sodipodi:nodetypes="sssssssccccccss" />
  </g>
  <g
     id="user-invisible"
     transform="translate(-1,-1)">
    <rect
       style="fill:#ebdbb2;fill-opacity:0;stroke:none"
       id="rect3855"
       width="22"
       height="22"
       x="41"
       y="1" />
    <path
       style="fill:#ebdbb2;fill-opacity:1;stroke:none"
       d="m 52,4 c -1.662,0 -3,1.338 -3,3 0,1.662 1.338,3 3,3 1.662,0 3,-1.338 3,-3 0,-1.662 -1.338,-3 -3,-3 z m 0,8 c -2.77,0 -5,0.89198 -5,2 l 0,5 0,1 1.20117,0 7.59766,0 1.20117,0 0,-1 0,-5 c 0,-1.10802 -2.23,-2 -5,-2 z"
       id="rect4109-9-3"
       inkscape:connector-curvature="0"
       sodipodi:nodetypes="sssssssccccccss" />
  </g>
  <g
     id="user-online"
     transform="translate(-1,39)">
    <rect
       style="fill:#ebdbb2;fill-opacity:0;stroke:none"
       id="rect3956"
       width="22"
       height="22"
       x="1"
       y="-39" />
    <path
       inkscape:connector-curvature="0"
       style="color:#ebdbb2;opacity:0.72;fill:#ebdbb2;fill-opacity:1"
       d="m 12,-36 c -1.662,0 -3,1.338 -3,3 0,1.662 1.338,3 3,3 1.662,0 3,-1.338 3,-3 0,-1.662 -1.338,-3 -3,-3 z m 0,8 c -2.77,0 -5,0.891984 -5,2 l 0,5 0,1 1.2011719,0 7.5976561,0 1.201172,0 0,-1 0,-5 c 0,-1.108016 -2.23,-2 -5,-2 z"
       id="rect4109-6-8"
       class="ColorScheme-Text"
       sodipodi:nodetypes="sssssssccccccss" />
  </g>
  <g
     transform="translate(-486.72644,-502.11926)"
     id="user-identity">
    <rect
       style="opacity:0.01000001;fill:#ebdbb2;fill-opacity:0.00392157;stroke:none"
       id="rect7769"
       width="22"
       height="21.999998"
       x="721.72644"
       y="502.11926" />
    <path
       id="rect4109-5"
       d="m 732.72644,505.11926 c -2.04554,0 -3.69232,1.64677 -3.69232,3.69232 0,2.04554 1.64678,3.69231 3.69232,3.69231 2.04553,0 3.69231,-1.64677 3.69231,-3.69231 0,-2.04555 -1.64678,-3.69232 -3.69231,-3.69232 z m 0,8.61539 c -3.40927,0 -6.15386,2.74461 -6.15386,6.15386 l 0,1.23077 12.30771,0 0,-1.23077 c 0,-3.40925 -2.74459,-6.15386 -6.15385,-6.15386 z"
       style="color:#ebdbb2;fill:#ebdbb2;fill-opacity:1;opacity:0.72"
       inkscape:connector-curvature="0"
       sodipodi:nodetypes="sssssssccss"
       class="ColorScheme-Text" />
  </g>
</svg>
