<?xml version="1.0" encoding="UTF-8" standalone="no"?>
<!-- Created with Inkscape (http://www.inkscape.org/) -->

<svg
   xmlns:osb="http://www.openswatchbook.org/uri/2009/osb"
   xmlns:dc="http://purl.org/dc/elements/1.1/"
   xmlns:cc="http://creativecommons.org/ns#"
   xmlns:rdf="http://www.w3.org/1999/02/22-rdf-syntax-ns#"
   xmlns:svg="http://www.w3.org/2000/svg"
   xmlns="http://www.w3.org/2000/svg"
   xmlns:sodipodi="http://sodipodi.sourceforge.net/DTD/sodipodi-0.dtd"
   xmlns:inkscape="http://www.inkscape.org/namespaces/inkscape"
   sodipodi:docname="view.svgz"
   inkscape:export-filename="/home/sam/source-symbolic.png"
   inkscape:export-xdpi="270"
   inkscape:export-ydpi="270"
   height="16"
   id="svg7384"
   style="enable-background:new"
   version="1.1"
   inkscape:version="0.91 r"
   width="16">
  <sodipodi:namedview
     inkscape:bbox-nodes="true"
     inkscape:bbox-paths="false"
     bordercolor="#ebdbb2"
     borderlayer="false"
     borderopacity="1"
     inkscape:current-layer="layer12"
     inkscape:cx="0.70377062"
     inkscape:cy="5.3008904"
     gridtolerance="10"
     inkscape:guide-bbox="true"
     guidetolerance="10"
     id="namedview88"
     inkscape:object-nodes="true"
     inkscape:object-paths="true"
     objecttolerance="10"
     pagecolor="#ebdbb2"
     inkscape:pageopacity="0"
     inkscape:pageshadow="2"
     showborder="true"
     showgrid="false"
     showguides="true"
     inkscape:showpageshadow="false"
     inkscape:snap-bbox="true"
     inkscape:snap-bbox-edge-midpoints="false"
     inkscape:snap-bbox-midpoints="true"
     inkscape:snap-center="false"
     inkscape:snap-global="true"
     inkscape:snap-grids="true"
     inkscape:snap-intersection-paths="true"
     inkscape:snap-midpoints="true"
     inkscape:snap-nodes="true"
     inkscape:snap-object-midpoints="true"
     inkscape:snap-others="true"
     inkscape:snap-page="false"
     inkscape:snap-smooth-nodes="true"
     inkscape:snap-to-guides="true"
     inkscape:window-height="840"
     inkscape:window-maximized="1"
     inkscape:window-width="1600"
     inkscape:window-x="-4"
     inkscape:window-y="34"
     inkscape:zoom="8.0800657">
    <inkscape:grid
       color="#ebdbb2"
       dotted="false"
       empcolor="#ebdbb2"
       empopacity="0.4627451"
       empspacing="4"
       enabled="true"
       id="grid4866"
       opacity="0.16470588"
       originx="-24.000006"
       originy="-255"
       snapvisiblegridlinesonly="true"
       spacingx="0.25px"
       spacingy="0.25px"
       type="xygrid"
       visible="true" />
  </sodipodi:namedview>
  <metadata
     id="metadata90">
    <rdf:RDF>
      <cc:Work
         rdf:about="">
        <dc:format>image/svg+xml</dc:format>
        <dc:type
           rdf:resource="http://purl.org/dc/dcmitype/StillImage" />
        <dc:title>Paper Symbolic Icon Theme</dc:title>
      </cc:Work>
    </rdf:RDF>
  </metadata>
  <title
     id="title8473">Paper Symbolic Icon Theme</title>
  <defs
     id="defs7386">
    <linearGradient
       id="linearGradient5606"
       osb:paint="solid">
      <stop
         id="stop5608"
         offset="0"
         style="stop-color:#ebdbb2;stop-opacity:1;" />
    </linearGradient>
  </defs>
  <g
     inkscape:groupmode="layer"
     id="layer12"
     inkscape:label="actions"
     style="display:inline"
     transform="translate(-265.00021,38.000004)">
    <g
       id="view-refresh"
       inkscape:label="#g4163">
      <path
         inkscape:connector-curvature="0"
         style="opacity:0;fill:#ebdbb2;fill-opacity:1;fill-rule:nonzero;stroke:none;stroke-width:1;stroke-linecap:round;stroke-linejoin:round;stroke-miterlimit:4;stroke-dasharray:none;stroke-dashoffset:0;stroke-opacity:1"
         d="m 282.00021,-38.000004 16,0 0,16 -16,0 z"
         id="path4156" />
      <g
         transform="translate(281.97246,-37.000109)"
         id="g4149"
         style="enable-background:new">
        <g
           id="layer12-0"
           inkscape:label="actions"
           style="display:inline"
           transform="translate(-485.03396,-41.017475)">
          <path
             inkscape:connector-curvature="0"
             d="m 499.06185,49.01758 c 0,3.31371 -2.68629,6 -6,6 -3.28006,0 -5.94034,-2.63316 -5.99414,-5.90039 a 1,1 0 0 1 -0.006,-0.09961 1,1 0 0 1 1,-1 1,1 0 0 1 1,1 c 0,2.20914 1.79086,4 4,4 2.20914,0 4,-1.79086 4,-4 0,-2.20914 -1.79086,-4 -4,-4 l 0,2 -4,-3 4,-3 0,2 c 3.31371,0 6,2.68629 6,6 z"
             id="path6694"
             style="opacity:0.72;fill:#ebdbb2;fill-opacity:1;stroke:none" />
        </g>
      </g>
    </g>
    <g
       id="view-history"
       inkscape:label="#g4168">
      <path
         id="rect4153"
         d="m 265.00021,-38.000004 16,0 0,16 -16,0 z"
         style="opacity:0;fill:#ebdbb2;fill-opacity:1;fill-rule:nonzero;stroke:none;stroke-width:1;stroke-linecap:round;stroke-linejoin:round;stroke-miterlimit:4;stroke-dasharray:none;stroke-dashoffset:0;stroke-opacity:1"
         inkscape:connector-curvature="0" />
      <path
         id="path4157"
         transform="translate(265.00021,-38.000004)"
         d="M 8.0449219 2 C 5.4709819 1.98 3.1612125 3.6075012 2.3203125 6.0351562 C 2.0969325 6.6800182 1.99856 7.342663 2 8 C 1.999 8.657338 2.0970025 9.3199827 2.3203125 9.9648438 C 3.1612125 12.3925 5.4709819 14.02 8.0449219 14 C 10.618842 13.98 12.900215 12.315429 13.703125 9.875 C 13.906195 9.257776 14.00137 8.626391 14 8 C 14.001 7.37361 13.906195 6.742225 13.703125 6.125 C 12.900215 3.684571 10.618842 2.019997 8.0449219 2 z M 8.0292969 3.9980469 C 9.7515669 4.0114269 11.263531 5.1131546 11.800781 6.7460938 C 11.936591 7.1589007 12.00029 7.582557 12 8 C 12.00029 8.417443 11.936591 8.8410993 11.800781 9.2539062 C 11.263531 10.886845 9.7515669 11.988573 8.0292969 12.001953 C 6.3070369 12.015333 4.7736075 10.936893 4.2109375 9.3125 C 4.0615675 8.881276 3.9955937 8.437871 3.9960938 8 C 3.9955937 7.562129 4.0615975 7.118724 4.2109375 6.6875 C 4.7736075 5.063107 6.3070369 3.9846629 8.0292969 3.9980469 z M 8 5 C 7.446 5 7 5.446 7 6 L 7 8 C 7 8.554 7.446 9 8 9 L 10 9 C 10.554 9 11 8.554 11 8 C 11 7.446 10.554 7 10 7 L 9 7 L 9 6 C 9 5.446 8.554 5 8 5 z "
         style="color:#ebdbb2;font-style:normal;font-variant:normal;font-weight:normal;font-stretch:normal;font-size:medium;line-height:normal;font-family:sans-serif;text-indent:0;text-align:start;text-decoration:none;text-decoration-line:none;text-decoration-style:solid;text-decoration-color:#ebdbb2;letter-spacing:normal;word-spacing:normal;text-transform:none;direction:ltr;block-progression:tb;writing-mode:lr-tb;baseline-shift:baseline;text-anchor:start;white-space:normal;clip-rule:nonzero;display:inline;overflow:visible;visibility:visible;opacity:0.72;isolation:auto;mix-blend-mode:normal;color-interpolation:sRGB;color-interpolation-filters:linearRGB;solid-color:#ebdbb2;solid-opacity:1;fill:#ebdbb2;fill-opacity:1;fill-rule:nonzero;stroke:none;stroke-width:2;stroke-linecap:round;stroke-linejoin:round;stroke-miterlimit:4;stroke-dasharray:none;stroke-dashoffset:0;stroke-opacity:1;color-rendering:auto;image-rendering:auto;shape-rendering:auto;text-rendering:auto;enable-background:accumulate" />
    </g>
  </g>
</svg>
